<svg version="1.2" xmlns="http://www.w3.org/2000/svg" viewBox="0 0 512 512" width="512" height="512">
	<title>sem-foto</title>
	<style>
		.s0 { fill: #000000 } 
	</style>
	<path id="Path 0" fill-rule="evenodd" class="s0" d="m261 0.5c11.8 0.2 24.9 1.1 31 2 5.8 0.9 15.4 2.7 21.5 4.1 6.1 1.3 15.3 3.8 20.5 5.5 5.2 1.7 14.4 5.1 20.5 7.6 6.1 2.4 15.5 6.8 21 9.8 5.5 2.9 14.7 8.4 20.5 12.2 5.8 3.8 15 10.6 20.5 15 5.5 4.4 14.7 12.7 20.4 18.4 5.7 5.7 14 14.9 18.4 20.4 4.4 5.5 11.3 15 15.3 21 4 6.1 9.9 16.2 13.1 22.5 3.3 6.3 7.8 16.2 10 22 2.3 5.8 5.8 15.9 7.8 22.5 2 6.6 4.7 17.8 6 25 1.3 7.2 2.8 18.2 3.4 24.5 0.6 6.3 1.1 16.7 1.1 23 0 6.3-0.5 16.7-1.1 23-0.6 6.3-2.1 17.4-3.4 24.5-1.3 7.1-4 18.4-6 25-2 6.6-5.5 16.7-7.8 22.5-2.2 5.8-6.7 15.7-10 22-3.2 6.3-9.1 16.4-13.1 22.5-4 6.1-10.5 15.1-14.4 20-4 4.9-12.3 14.1-18.5 20.4-6.1 6.2-15.7 15-21.2 19.4-5.5 4.4-14.7 11.2-20.5 15-5.8 3.8-15 9.3-20.5 12.2-5.5 3-16.1 7.8-23.5 10.8-7.4 3-19.4 7-26.5 9-7.1 2-18.2 4.6-24.5 5.7-6.3 1.1-16.4 2.4-22.5 3-6.1 0.5-16.2 1-22.5 1-6.3 0-16.7-0.5-23-1.1-6.3-0.6-17.3-2.1-24.5-3.4-7.2-1.3-18.4-4-25-6-6.6-2-16.7-5.5-22.5-7.8-5.8-2.2-15.7-6.7-22-10-6.3-3.2-16.5-9.1-22.5-13.1-6-4-15.5-10.9-21-15.3-5.5-4.4-14.7-12.7-20.4-18.4-5.7-5.7-14-14.9-18.4-20.4-4.4-5.5-10.6-13.8-13.7-18.5-3.2-4.7-8.2-13-11.3-18.5-3.1-5.5-7.8-15.2-10.5-21.5-2.7-6.3-6.8-17.1-9-24-2.2-6.9-5.2-17.9-6.5-24.5-1.4-6.6-3.1-16.3-3.8-21.5-0.8-5.5-1.4-18.9-1.4-32 0-13.1 0.6-26.5 1.4-32 0.7-5.2 2.4-14.9 3.8-21.5 1.3-6.6 4.3-17.6 6.5-24.5 2.2-6.9 6.3-17.7 9-24 2.7-6.3 7.4-16 10.5-21.5 3.1-5.5 8.1-13.8 11.3-18.5 3.1-4.7 9.3-13 13.7-18.5 4.4-5.5 12.7-14.7 18.4-20.4 5.7-5.7 14.9-14 20.4-18.4 5.5-4.4 13.8-10.6 18.5-13.7 4.7-3.2 13-8.2 18.5-11.3 5.5-3.1 15.2-7.8 21.5-10.5 6.3-2.7 17.1-6.8 24-9 6.9-2.2 17.9-5.2 24.5-6.5 6.6-1.4 16.3-3 21.5-3.6 5.2-0.6 11.1-1.3 13-1.5 1.9-0.2 12.7-0.3 24-0.1zm-49.8 34c-6.7 1.4-17.3 4.1-23.5 6.1-6.1 2-15.5 5.5-20.7 7.7-5.2 2.3-13.6 6.3-18.5 9-4.9 2.7-13.3 7.7-18.5 11.2-5.2 3.5-13.8 9.9-19 14.3-5.2 4.4-13.5 12.1-18.4 17.3-4.9 5.2-12.1 13.4-15.9 18.4-3.8 5-9.4 13.1-12.5 18-3 4.9-8.4 14.8-11.8 22-3.5 7.2-8.4 19.1-10.8 26.5-2.5 7.4-5.6 19.1-7 26-1.4 6.9-3 17.7-3.5 24-0.6 6.3-1.1 15.8-1.1 21 0 5.2 0.5 14.7 1.1 21 0.5 6.3 2.1 17 3.5 23.8 1.3 6.7 3.8 16.6 5.5 22 1.7 5.3 4.5 13.1 6.1 17.2 1.6 4.1 5.2 11.9 7.9 17.3 2.7 5.3 7.3 13.6 10.3 18.5 3 4.8 8.6 12.9 12.5 18 3.9 5 7.7 9.5 8.3 9.8 0.8 0.4 61.4-59.5 160.1-158.2 87.3-87.4 158.7-159.2 158.7-159.7 0-0.4-3.5-3.5-7.7-6.9-4.3-3.4-11.4-8.5-15.8-11.4-4.4-2.8-12-7.4-17-10.1-4.9-2.7-13.3-6.7-18.5-9-5.2-2.3-14.6-5.7-20.7-7.7-6.2-2-16.8-4.7-23.5-6-6.8-1.4-17.5-3-23.8-3.5-6.3-0.6-16.7-1-23-1-6.3 0.1-15.8 0.6-21 1.1-5.2 0.5-15 2-21.7 3.3zm-102.3 393.1c0.8 0.9 5.6 4.7 10.5 8.4 5 3.7 12.7 9.1 17.3 11.9 4.5 2.8 12.6 7.3 18 10 5.3 2.7 13.1 6.3 17.2 7.9 4.1 1.6 11.1 4.1 15.5 5.5 4.4 1.5 11.8 3.6 16.5 4.6 4.7 1.1 13.2 2.7 19 3.6 5.8 0.9 16.8 1.8 24.5 2.2 8 0.3 19.8 0.1 27.5-0.6 7.4-0.7 19-2.3 25.8-3.6 6.7-1.4 18.6-4.6 26.5-7.2 7.9-2.6 20.7-7.9 28.7-11.9 8-4 19.2-10.4 25-14.2 5.8-3.9 14.8-10.6 20-14.9 5.2-4.4 13.7-12.5 18.9-17.9 5.1-5.4 12.4-14 16.1-18.9 3.7-5 9.2-12.8 12.1-17.5 2.9-4.7 8.1-14.4 11.6-21.5 3.4-7.2 8.3-19.2 10.8-26.8 2.5-7.5 5.6-19.2 7-26 1.3-6.7 2.9-18.3 3.6-25.7 0.7-7.7 0.9-19.5 0.6-27.5-0.4-7.7-1.3-18.7-2.2-24.5-0.9-5.8-2.5-14.6-3.7-19.5-1.1-5-3.5-13.3-5.3-18.5-1.7-5.2-4.9-13.6-7-18.5-2.2-5-6.1-13.1-8.8-18-2.7-5-7.3-12.6-10.1-17-2.9-4.4-8-11.5-11.4-15.8-3.4-4.2-6.5-7.7-7-7.7-0.4 0-72.3 71.5-159.7 158.9-145.7 145.7-158.9 159.1-157.5 160.7zm146.3-331.5c11-0.1 22 0.4 24.9 1 2.9 0.6 7.8 2.3 10.8 3.8 3.1 1.4 8.2 5.2 11.5 8.6 3.3 3.3 7.2 8.5 8.7 11.5 1.4 3 2.9 7.1 3.3 9 0.6 3.5 0.4 3.7-39 43.1l-7.5-1.2c-4.3-0.7-11.6-0.9-17-0.6-5.6 0.4-13.1 1.6-18.3 3.2-4.8 1.4-11.1 3.7-14 5.1-2.8 1.5-7.9 4.5-11.2 6.8-3.3 2.2-8.5 6.5-11.5 9.6-3.1 3-7.4 8.2-9.6 11.5-2.3 3.3-5.3 8.4-6.8 11.2-1.4 2.9-3.7 9.2-5.1 14-1.6 5.2-2.8 12.7-3.2 18.3-0.3 5.4-0.1 12.7 1.8 24.5l-37.3 37.2c-29.6 29.5-37.6 37-38.5 36-0.7-0.6-2.3-3.9-5.8-13.2l-0.3-76c-0.2-54.2 0-77.7 0.8-82 0.7-3.3 2.4-8.5 3.8-11.5 1.5-3.1 5.2-8.1 8.6-11.6 3.5-3.5 8.4-7.1 11.6-8.6 3-1.4 7.9-3.1 10.7-3.7 3.3-0.7 17.5-1.1 68.8-1.1l1.2-7c0.7-3.8 2.5-9.6 4-12.8 1.6-3.4 5.1-8.1 8.7-11.8 3.4-3.3 8.3-7.1 11.1-8.4 2.7-1.3 7.2-3 10-3.6 3-0.7 13-1.3 24.7-1.3zm159.5 67.2c0.7 0.6 2.3 3.9 5.8 13.2l0.3 76c0.2 54.9 0 77.7-0.9 82-0.6 3.3-2.3 8.5-3.7 11.5-1.5 3.1-5.2 8.1-8.7 11.6-3.5 3.5-8.3 7.1-11.5 8.6-3 1.4-7.9 3.1-10.8 3.7-3.6 0.8-32.2 1.1-180.7 1.1l32-32.1 7.5 1.2c4.3 0.7 11.6 0.9 17 0.6 5.6-0.4 13.1-1.6 18.2-3.2 4.9-1.4 11.2-3.7 14-5.1 2.9-1.5 8-4.5 11.3-6.8 3.3-2.2 8.5-6.5 11.5-9.6 3.1-3 7.4-8.2 9.6-11.5 2.3-3.3 5.3-8.4 6.8-11.3 1.4-2.8 3.7-9.1 5.1-14 1.6-5.1 2.8-12.6 3.2-18.2 0.3-5.4 0.1-12.7-1.8-24.5l37.3-37.2c29.8-29.8 37.5-37 38.5-36zm-163.7 32.8c0.8-0.1-11.1 12.5-26.5 27.9-15.4 15.3-28.1 27.8-28.3 27.7-0.1-0.1 0.4-3.6 1.3-7.7 0.8-4.1 3.1-10.9 5.1-15 2.7-5.5 5.7-9.5 11.3-15.1 5.4-5.4 9.7-8.6 15.1-11.2 4.1-2.1 10.4-4.4 14-5.1 3.6-0.8 7.2-1.5 8-1.5zm64.6 64.3c0.2 0.2-0.4 3.7-1.1 7.7-0.8 4.1-3 10.5-4.9 14.4-2 4.1-6.1 9.9-9.9 14-3.6 3.9-9.3 8.7-12.8 10.8-3.5 2.1-9.3 4.6-12.9 5.7-3.6 1-8.3 2.1-10.5 2.5-3.9 0.6-3.2-0.2 23.9-27.4 15.4-15.4 28.1-27.9 28.2-27.7z"/>
</svg>